<?xml version="1.0" ?><svg viewBox="0 0 512 512" xmlns="http://www.w3.org/2000/svg"><defs><style>.cls-1{fill:#0071af;}.cls-2{fill:#006095;}.cls-3{fill:#00659d;}.cls-4{fill:#005686;}.cls-5{fill:#f9b7b7;}.cls-6{fill:#59cea7;}.cls-7{fill:#cbe2ef;}.cls-8{fill:#5ca4cc;}.cls-9{fill:#00b378;}.cls-10{fill:#31c292;}.cls-11{fill:#575757;}.cls-12{fill:#bebebe;}.cls-13{fill:#6e6e6e;}.cls-14{fill:#4a4a4a;}.cls-15{fill:#a2a2a2;}.cls-16{fill:#009866;}.cls-17{fill:#4caf8e;}.cls-18{fill:#d49c9c;}.cls-19{fill:#f9dbdb;}.cls-20{fill:#d27676;}.cls-21{fill:#ea8383;}.cls-22{fill:#f0a5a5;}.cls-23{fill:#c76f6f;}.cls-24{fill:#cc8c8c;}</style></defs><g data-name="/ FILLED_OUTLINE" id="_FILLED_OUTLINE"><rect class="cls-1" height="432" width="288" x="112" y="64"/><path class="cls-2" d="M112.00031,496H400V208.00024C400,367.05811,271.05817,496,112.00031,496Z"/><rect class="cls-3" height="152" rx="32" width="288" x="112" y="24"/><path class="cls-4" d="M248.00012,176H368a32,32,0,0,0,32-32V56a31.95383,31.95383,0,0,0-1.59418-9.97534A152.027,152.027,0,0,1,248.00012,176Z"/><path class="cls-5" d="M343.179,253.05957l-52.23859-17.41284a15.99984,15.99984,0,0,1-10.94037-15.179V208a16.00006,16.00006,0,0,1,6.4-12.8l3.2-2.3999a56.00027,56.00027,0,0,0,22.4-44.8V120a55.99994,55.99994,0,0,0-55.99994-56h-.00018A55.99994,55.99994,0,0,0,200,120v28a56.00027,56.00027,0,0,0,22.4,44.80005l3.2,2.3999A16.00008,16.00008,0,0,1,232,208v12.46777a15.99984,15.99984,0,0,1-10.94037,15.179L168.821,253.05957A48.00008,48.00008,0,0,0,136,298.59644V440a24,24,0,0,0,48,0v-8H328l.00006,8a24,24,0,0,0,48,0V298.59644A48.00008,48.00008,0,0,0,343.179,253.05957Z"/><path class="cls-6" d="M376,376V298.59326a48.00021,48.00021,0,0,0-32.821-45.53369L298.00006,238,296,240l-15.41693,18.50024a31.99975,31.99975,0,0,1-49.16614,0L216,240l-2.00006-2L168.821,253.05957A48.00008,48.00008,0,0,0,136,298.59644V376h48v56H328V376Z"/><path class="cls-7" d="M120,96v71.43706a16,16,0,0,1-7.1248,13.3128L96,192,79.1248,180.74986A16,16,0,0,1,72,167.43706V96A16,16,0,0,1,88,80h16A16,16,0,0,1,120,96Z"/><path class="cls-8" d="M136,416H112a24.02718,24.02718,0,0,1-24-24V176h16V392a8.00917,8.00917,0,0,0,8,8h24Z"/><path class="cls-9" d="M184,432v64H328V432Z"/><path class="cls-10" d="M264,268.99756a32.25026,32.25026,0,0,1-16,0V328h16Z"/><rect class="cls-10" height="72" width="16" x="176" y="304"/><rect class="cls-10" height="72" width="16" x="320" y="304"/><path class="cls-8" d="M72,167.437a16.00053,16.00053,0,0,0,7.12482,13.313L96,192l16.87518-11.25A16.00053,16.00053,0,0,0,120,167.437V120H72Z"/><path class="cls-11" d="M120,32V16H16V32H32V496H48V32H72V64a24,24,0,0,0,48,0V48H104V64a8,8,0,0,1-16,0V32Z"/><path class="cls-8" d="M284.46387,144.87012l-57.364,1.74487-26.96545,5.10547a55.94991,55.94991,0,0,0,3.33276,15.65869l29.61666-5.488H286.5813l21.95154,5.488a55.952,55.952,0,0,0,3.33276-15.65869Z"/><path class="cls-1" d="M254.13718,128h3.72564a18.10656,18.10656,0,0,1,17.56595,13.71508l2.94671,11.78685a18.10658,18.10658,0,0,1-1.37094,12.489v0A18.10657,18.10657,0,0,1,260.80953,176h-9.61906a18.10657,18.10657,0,0,1-16.195-10.00906v0a18.10658,18.10658,0,0,1-1.37094-12.489l2.94671-11.78685A18.10656,18.10656,0,0,1,254.13718,128Z"/><rect class="cls-11" height="112" rx="16" width="144" x="344" y="96"/><polygon class="cls-12" points="413.809 181.505 400 153.889 388.944 176 368 176 368 160 379.056 160 400 118.111 418.191 154.495 434.191 138.495 444.944 160 464 160 464 176 435.056 176 429.809 165.505 413.809 181.505"/><polygon class="cls-13" points="424 232 424 208 408 208 408 232 376 232 376 248 456 248 456 232 424 232"/><path class="cls-14" d="M376.00012,208H472a16.00008,16.00008,0,0,0,16-16V112a15.97586,15.97586,0,0,0-.6051-4.31372A112.0131,112.0131,0,0,1,376.00012,208Z"/><path class="cls-15" d="M464,176V165.27563A112.652,112.652,0,0,1,454.37384,176Z"/><path class="cls-16" d="M293.00323,432A287.045,287.045,0,0,1,184,486.92651V496H328V432Z"/><rect class="cls-17" height="32" width="16" x="248" y="464"/><path class="cls-18" d="M328,398.45947V432l.00006,8a24,24,0,0,0,48,0V323.22852A288.19045,288.19045,0,0,1,328,398.45947Z"/><path class="cls-17" d="M328,432V398.47A289.71288,289.71288,0,0,1,293.00323,432Z"/><path class="cls-17" d="M345.93182,376H376V323.22876A287.58932,287.58932,0,0,1,345.93182,376Z"/><circle class="cls-19" cx="384" cy="384" r="104"/><rect class="cls-20" height="32" width="16" x="376" y="304"/><rect class="cls-20" height="34.50616" transform="matrix(0.86603, -0.5, 0.5, 0.86603, -117.58617, 220.47684)" width="16.00003" x="344.62645" y="312.40634"/><rect class="cls-20" height="31.64831" transform="translate(-140.55414 460.37665) rotate(-59.99987)" width="16.00003" x="320.42186" y="336.08795"/><rect class="cls-20" height="16" width="32" x="304" y="376"/><rect class="cls-20" height="16.00003" transform="translate(-164.04422 219.95729) rotate(-30.00013)" width="31.64831" x="312.59772" y="408.08787"/><rect class="cls-20" height="16.00003" transform="translate(-205.48067 524.55458) rotate(-60.00007)" width="30.14631" x="336.46347" y="432.2285"/><rect class="cls-20" height="32" width="16" x="376" y="432"/><rect class="cls-20" height="30.14631" transform="translate(-164.31932 267.21305) rotate(-30.00019)" width="16.00003" x="408.46336" y="425.15536"/><rect class="cls-20" height="29.83216" transform="translate(-140.55325 589.63932) rotate(-60.00015)" width="16.00003" x="432.36449" y="401.62591"/><rect class="cls-20" height="16" width="32" x="432" y="376"/><rect class="cls-20" height="16.00003" transform="translate(-116.73113 267.26727) rotate(-29.99985)" width="29.83216" x="425.44842" y="343.45799"/><rect class="cls-20" height="16.00003" transform="translate(-75.6265 524.55421) rotate(-60.00007)" width="30.14631" x="401.39022" y="319.77147"/><circle class="cls-21" cx="384" cy="384" r="56"/><rect class="cls-22" height="16" width="16" x="360" y="352"/><rect class="cls-22" height="16" width="16" x="392" y="368"/><rect class="cls-22" height="16" width="16" x="352" y="384"/><rect class="cls-22" height="16" width="16" x="384" y="400"/><path class="cls-23" d="M360.99988,435.05566a55.99438,55.99438,0,0,0,74.05578-74.05578A112.25187,112.25187,0,0,1,360.99988,435.05566Z"/><path class="cls-24" d="M400,416v-2.2168q-1.34336,1.12866-2.72113,2.2168Z"/><path d="M333.03894,345.34058l-14.32117-8.26831-8,13.85546,14.29291,8.252A63.48616,63.48616,0,0,0,320.51782,376H304v16h16.51782a63.48616,63.48616,0,0,0,4.49286,16.82031l-14.29291,8.252,8,13.85546,14.32117-8.26831a64.53941,64.53941,0,0,0,12.30115,12.30127l-8.26831,14.32154,13.85644,8,8.25177-14.293A63.47271,63.47271,0,0,0,376,447.48218V464h16V447.48218a63.47271,63.47271,0,0,0,16.82-4.49292l8.25177,14.293,13.85644-8-8.26831-14.32154a64.53973,64.53973,0,0,0,12.30121-12.30127l14.32111,8.26831,8-13.85546-14.29291-8.252A63.48616,63.48616,0,0,0,447.48218,392H464V376H447.48218a63.48616,63.48616,0,0,0-4.49286-16.82031l14.29291-8.252-8-13.85546-14.32111,8.26831a64.53973,64.53973,0,0,0-12.30121-12.30127l8.26831-14.32154-13.85644-8-8.25177,14.293A63.47271,63.47271,0,0,0,392,320.51782V304H376v16.51782a63.47271,63.47271,0,0,0-16.82,4.49292l-8.25177-14.293-13.85644,8,8.26831,14.32154A64.53941,64.53941,0,0,0,333.03894,345.34058ZM336,384a48,48,0,1,1,48,48A48.05405,48.05405,0,0,1,336,384Z"/><rect height="16" width="16" x="360" y="352"/><rect height="16" width="16" x="392" y="368"/><rect height="16" width="16" x="352" y="384"/><rect height="16" width="16" x="384" y="400"/><rect height="32" width="16" x="248" y="464"/><path d="M472,216a24.02718,24.02718,0,0,0,24-24V112a24.02718,24.02718,0,0,0-24-24H408V56a40.04552,40.04552,0,0,0-40-40H136V32H368a24.0275,24.0275,0,0,1,24,24V88H360a24.02718,24.02718,0,0,0-24,24v56H316.73688A63.66765,63.66765,0,0,0,320,148V120a64,64,0,0,0-128,0v28a63.66937,63.66937,0,0,0,3.26312,20H144a23.96377,23.96377,0,0,1-15.87158-5.99707L128,162.14844V96a23.99681,23.99681,0,0,0-11.10065-20.22266A23.84387,23.84387,0,0,0,120,64V48H104V64a8,8,0,0,1-16,0V32h32V16H16V32H32V496H48V32H72V64a23.84387,23.84387,0,0,0,3.10065,11.77734A23.99681,23.99681,0,0,0,64,96v71.4375a23.95219,23.95219,0,0,0,10.6875,19.96875L88,196.28174V392a24.0275,24.0275,0,0,0,24,24h16v24a31.97546,31.97546,0,0,0,48,27.69482V496h16V440h95.035A112.86231,112.86231,0,0,0,320,475.85864V496h16V485.17871A111.99451,111.99451,0,1,0,384,272c-2.22528,0-4.43359.07275-6.6272.20142a56.0123,56.0123,0,0,0-31.6643-26.73169l-52.23829-17.41309A7.98789,7.98789,0,0,1,288,220.46777V208a8.03858,8.03858,0,0,1,3.2002-6.40039l3.1997-2.39941A63.69839,63.69839,0,0,0,308.851,184H336v8a24.02718,24.02718,0,0,0,24,24h48v16H376v16h80V232H424V216ZM208,120a48,48,0,0,1,96,0v28c0,.58228-.0304,1.16113-.05182,1.74121l-19.48431-4.87109-1.27393-5.09571A26.06906,26.06906,0,0,0,257.86279,120h-3.72558a26.06906,26.06906,0,0,0-25.32715,19.77441l-1.71015,6.84058-19.03167,3.678c-.037-.7627-.06824-1.52612-.06824-2.293Zm61.84912,42.41309A10.0515,10.0515,0,0,1,260.80957,168h-9.61914a10.10649,10.10649,0,0,1-9.80469-12.55762l2.94678-11.78711A10.09144,10.09144,0,0,1,254.13721,136h3.72558a10.09144,10.09144,0,0,1,9.80469,7.65527l2.94678,11.78711A10.11121,10.11121,0,0,1,269.84912,162.41309ZM88,88h16a8.00917,8.00917,0,0,1,8,8v16H80V96A8.00917,8.00917,0,0,1,88,88Zm-8,79.4375V128h32v39.4375a7.98486,7.98486,0,0,1-3.5625,6.65625L96,182.38477l-12.437-8.291A7.98412,7.98412,0,0,1,80,167.4375ZM112,400a8.00917,8.00917,0,0,1-8-8V196.28174l13.313-8.87549a23.9766,23.9766,0,0,0,7.62146-8.23926A39.97255,39.97255,0,0,0,144,184h59.14911a63.69658,63.69658,0,0,0,14.4505,15.19922l3.20068,2.40137A8.03624,8.03624,0,0,1,224,208v12.46777a7.98789,7.98789,0,0,1-5.47021,7.58887L166.2915,245.46973A55.92934,55.92934,0,0,0,128,298.59668V400Zm48,56a16.01833,16.01833,0,0,1-16-16V384h32v56A16.01833,16.01833,0,0,1,160,456Zm320-72a96,96,0,1,1-96-96A96.10874,96.10874,0,0,1,480,384ZM359.9856,274.60059A111.99444,111.99444,0,0,0,279.39014,424H192V304H176v64H144V298.59668a39.94746,39.94746,0,0,1,27.35107-37.94727L211.61115,247.229,225.271,263.62109A39.87188,39.87188,0,0,0,248,277.19849V328h16V277.19849a39.86935,39.86935,0,0,0,22.72852-13.5774L300.38879,247.229l40.26014,13.42041A39.99929,39.99929,0,0,1,359.9856,274.60059Zm-75.1858-88.2002-3.1997,2.39941A24.11623,24.11623,0,0,0,272,208v12.46777a23.95553,23.95553,0,0,0,12.37744,20.9834L274.437,253.37891a23.99959,23.99959,0,0,1-36.87451,0l-9.94006-11.92774A23.95614,23.95614,0,0,0,240,220.46777V208a24.1139,24.1139,0,0,0-9.59961-19.19922l-3.20068-2.40137a48.10188,48.10188,0,0,1-15.68109-20.47753l14.11767-2.72828A26.06188,26.06188,0,0,0,251.19043,184h9.61914a25.99418,25.99418,0,0,0,25.77173-22.10889l14.10083,3.52539A48.11941,48.11941,0,0,1,284.7998,186.40039ZM352,192V112a8.00917,8.00917,0,0,1,8-8H472a8.00917,8.00917,0,0,1,8,8v80a8.00917,8.00917,0,0,1-8,8H360A8.00917,8.00917,0,0,1,352,192Z"/><polygon points="434.191 138.495 418.191 154.495 400 118.111 379.056 160 368 160 368 176 388.944 176 400 153.889 413.809 181.505 429.809 165.505 435.056 176 464 176 464 160 444.944 160 434.191 138.495"/></g></svg>